{
.appVersion = "1277";
DisplayStrings = (
R,
A
);
copyright = "OFL 1.1";
customParameters = (
{
name = fsType;
value = (
3
);
}
);
date = "2019-04-05 23:16:35 +0000";
designer = "Eli Heuer";
disablesAutomaticAlignment = 1;
disablesNiceNames = 1;
familyName = WAWA2000;
fontMaster = (
{
ascender = 1700;
capHeight = 1400;
customParameters = (
{
name = underlineThickness;
value = 50;
},
{
name = underlinePosition;
value = -100;
}
);
descender = -400;
id = master01;
weightValue = 344;
xHeight = 1000;
}
);
glyphs = (
{
color = 4;
glyphname = A;
layers = (
{
layerId = master01;
paths = (
{
closed = 1;
nodes = (
"775 1355 OFFCURVE",
"716 1400 OFFCURVE",
"660 1400 QCURVE SMOOTH",
"623 1400 OFFCURVE",
"550 1390 OFFCURVE",
"510 1390 QCURVE SMOOTH",
"463 1390 OFFCURVE",
"407 1400 OFFCURVE",
"360 1400 QCURVE SMOOTH",
"307 1400 OFFCURVE",
"262 1361 OFFCURVE",
"240 1280 QCURVE SMOOTH",
"212 1176 OFFCURVE",
"167 919 OFFCURVE",
"130 730 QCURVE SMOOTH",
"81 477 OFFCURVE",
"10 178 OFFCURVE",
"10 110 QCURVE SMOOTH",
"10 50 OFFCURVE",
"70 0 OFFCURVE",
"160 0 QCURVE SMOOTH",
"290 0 OFFCURVE",
"340 30 OFFCURVE",
"350 80 QCURVE SMOOTH",
"360 129 OFFCURVE",
"370 180 OFFCURVE",
"380 220 QCURVE SMOOTH",
"390 260 OFFCURVE",
"426 293 OFFCURVE",
"510 290 QCURVE SMOOTH",
"591 287 OFFCURVE",
"622 261 OFFCURVE",
"630 220 QCURVE SMOOTH",
"640 170 OFFCURVE",
"640 110 OFFCURVE",
"650 70 QCURVE SMOOTH",
"662 21 OFFCURVE",
"720 0 OFFCURVE",
"840 0 QCURVE SMOOTH",
"950 0 OFFCURVE",
"1010 50 OFFCURVE",
"1010 110 QCURVE SMOOTH",
"1010 190 OFFCURVE",
"948 477 OFFCURVE",
"900 730 QCURVE SMOOTH",
"860 942 OFFCURVE",
"808 1190 OFFCURVE",
"790 1280 QCURVE SMOOTH"
);
},
{
closed = 1;
nodes = (
"440 820 OFFCURVE",
"470 1000 QCURVE SMOOTH",
"477 1041 OFFCURVE",
"498 1080 OFFCURVE",
"510 1080 QCURVE SMOOTH",
"520 1080 OFFCURVE",
"534 1040 OFFCURVE",
"540 1000 QCURVE SMOOTH",
"560 860 OFFCURVE",
"580 650 OFFCURVE",
"580 620 QCURVE SMOOTH",
"580 600 OFFCURVE",
"550 590 OFFCURVE",
"500 590 QCURVE SMOOTH",
"450 590 OFFCURVE",
"420 600 OFFCURVE",
"420 620 QCURVE SMOOTH",
"420 650 OFFCURVE"
);
}
);
userData = {
com.schriftgestaltung.Glyphs.lastChange = "2019/08/21 03:48:14";
};
width = 1020;
}
);
unicode = 0041;
},
{
color = 4;
glyphname = B;
lastChange = "2019-12-07 23:44:42 +0000";
layers = (
{
layerId = master01;
paths = (
{
closed = 1;
nodes = (
"202 0 OFFCURVE",
"326 10 OFFCURVE",
"380 10 CURVE SMOOTH",
"440 10 OFFCURVE",
"534 0 OFFCURVE",
"602 0 CURVE SMOOTH",
"790 0 OFFCURVE",
"968 250 OFFCURVE",
"968 404 QCURVE SMOOTH",
"968 542 OFFCURVE",
"877 669 OFFCURVE",
"800 720 QCURVE SMOOTH",
"770 740 OFFCURVE",
"770 770 OFFCURVE",
"790 780 QCURVE SMOOTH",
"850 820 OFFCURVE",
"930 950 OFFCURVE",
"930 1040 QCURVE SMOOTH",
"930 1246 OFFCURVE",
"730 1400 OFFCURVE",
"630 1400 QCURVE SMOOTH",
"540 1400 OFFCURVE",
"459 1390 OFFCURVE",
"370 1390 CURVE SMOOTH",
"296 1390 OFFCURVE",
"230 1400 OFFCURVE",
"160 1400 CURVE SMOOTH",
"90 1400 OFFCURVE",
"40 1337 OFFCURVE",
"40 1270 QCURVE SMOOTH",
"40 1132 OFFCURVE",
"61 907 OFFCURVE",
"60 750 CURVE SMOOTH",
"61 568 OFFCURVE",
"40 300 OFFCURVE",
"40 130 CURVE SMOOTH",
"40 70 OFFCURVE",
"90 0 OFFCURVE",
"156 0 QCURVE SMOOTH"
);
},
{
closed = 1;
nodes = (
"420 870 OFFCURVE",
"380 890 OFFCURVE",
"380 1000 QCURVE SMOOTH",
"380 1100 OFFCURVE",
"410 1130 OFFCURVE",
"460 1130 QCURVE SMOOTH",
"520 1130 OFFCURVE",
"580 1060 OFFCURVE",
"580 1000 QCURVE SMOOTH",
"580 920 OFFCURVE",
"530 870 OFFCURVE",
"480 870 QCURVE SMOOTH"
);
},
{
closed = 1;
nodes = (
"420 270 OFFCURVE",
"380 330 OFFCURVE",
"380 440 QCURVE SMOOTH",
"380 540 OFFCURVE",
"410 620 OFFCURVE",
"460 620 QCURVE SMOOTH",
"540 620 OFFCURVE",
"600 550 OFFCURVE",
"600 440 QCURVE SMOOTH",
"600 330 OFFCURVE",
"550 270 OFFCURVE",
"480 270 QCURVE SMOOTH"
);
}
);
userData = {
com.schriftgestaltung.Glyphs.lastChange = "2019/06/15 12:46:46";
};
width = 1000;
}
);
unicode = 0042;
},
{
color = 4;
glyphname = C;
layers = (
{
layerId = master01;
paths = (
{
closed = 1;
nodes = (
"20 322 OFFCURVE",
"343 -10 OFFCURVE",
"580 -10 QCURVE SMOOTH",
"708 -10 OFFCURVE",
"770 42 OFFCURVE",
"770 120 QCURVE SMOOTH",
"770 274 OFFCURVE",
"743 330 OFFCURVE",
"710 330 QCURVE SMOOTH",
"688 330 OFFCURVE",
"597 300 OFFCURVE",
"570 300 QCURVE SMOOTH",
"480 300 OFFCURVE",
"370 485 OFFCURVE",
"370 720 QCURVE SMOOTH",
"370 971 OFFCURVE",
"481 1140 OFFCURVE",
"550 1140 QCURVE SMOOTH",
"580 1140 OFFCURVE",
"670 1130 OFFCURVE",
"690 1130 QCURVE SMOOTH",
"732 1130 OFFCURVE",
"770 1160 OFFCURVE",
"770 1250 QCURVE SMOOTH",
"770 1354 OFFCURVE",
"710 1410 OFFCURVE",
"550 1410 QCURVE SMOOTH",
"342 1410 OFFCURVE",
"20 1057 OFFCURVE",
"20 720 QCURVE SMOOTH"
);
}
);
userData = {
com.schriftgestaltung.Glyphs.lastChange = "2019/06/15 12:46:10";
};
width = 790;
}
);
unicode = 0043;
},
{
color = 4;
glyphname = D;
layers = (
{
layerId = master01;
paths = (
{
closed = 1;
nodes = (
"202 0 OFFCURVE",
"326 10 OFFCURVE",
"380 10 CURVE SMOOTH",
"440 10 OFFCURVE",
"514 0 OFFCURVE",
"580 0 CURVE SMOOTH",
"770 0 OFFCURVE",
"970 394 OFFCURVE",
"970 740 QCURVE SMOOTH",
"970 1093 OFFCURVE",
"716 1400 OFFCURVE",
"560 1400 QCURVE SMOOTH",
"505 1400 OFFCURVE",
"424 1390 OFFCURVE",
"370 1390 CURVE SMOOTH",
"296 1390 OFFCURVE",
"230 1400 OFFCURVE",
"160 1400 CURVE SMOOTH",
"90 1400 OFFCURVE",
"40 1337 OFFCURVE",
"40 1270 QCURVE SMOOTH",
"40 1132 OFFCURVE",
"51 907 OFFCURVE",
"50 750 CURVE SMOOTH",
"51 568 OFFCURVE",
"40 300 OFFCURVE",
"40 130 CURVE SMOOTH",
"40 70 OFFCURVE",
"90 0 OFFCURVE",
"156 0 QCURVE SMOOTH"
);
},
{
closed = 1;
nodes = (
"397 277 OFFCURVE",
"370 301 OFFCURVE",
"370 740 QCURVE SMOOTH",
"370 1099 OFFCURVE",
"387 1130 OFFCURVE",
"430 1130 QCURVE SMOOTH",
"496 1130 OFFCURVE",
"590 969 OFFCURVE",
"590 740 QCURVE SMOOTH",
"590 546 OFFCURVE",
"527 285 OFFCURVE",
"450 280 QCURVE SMOOTH"
);
}
);
userData = {
com.schriftgestaltung.Glyphs.lastChange = "2019/06/15 12:48:49";
};
width = 990;
}
);
unicode = 0044;
},
{
color = 4;
glyphname = E;
layers = (
{
layerId = master01;
paths = (
{
closed = 1;
nodes = (
"249 0 OFFCURVE",
"341 10 OFFCURVE",
"420 10 QCURVE SMOOTH",
"507 10 OFFCURVE",
"605 0 OFFCURVE",
"680 0 QCURVE SMOOTH",
"723 0 OFFCURVE",
"762 40 OFFCURVE",
"760 150 QCURVE SMOOTH",
"762 260 OFFCURVE",
"722 300 OFFCURVE",
"670 300 QCURVE SMOOTH",
"636 300 OFFCURVE",
"562 290 OFFCURVE",
"520 290 QCURVE SMOOTH",
"429 289 OFFCURVE",
"382 348 OFFCURVE",
"380 460 QCURVE SMOOTH",
"382 558 OFFCURVE",
"412 600 OFFCURVE",
"470 600 QCURVE SMOOTH",
"531 600 OFFCURVE",
"611 590 OFFCURVE",
"650 590 QCURVE SMOOTH",
"705 590 OFFCURVE",
"742 650 OFFCURVE",
"740 720 QCURVE SMOOTH",
"742 820 OFFCURVE",
"702 870 OFFCURVE",
"670 870 QCURVE SMOOTH",
"646 870 OFFCURVE",
"552 860 OFFCURVE",
"470 860 QCURVE SMOOTH",
"412 860 OFFCURVE",
"382 910 OFFCURVE",
"380 1000 QCURVE SMOOTH",
"382 1070 OFFCURVE",
"423 1130 OFFCURVE",
"520 1130 QCURVE SMOOTH",
"579 1130 OFFCURVE",
"650 1120 OFFCURVE",
"710 1120 QCURVE SMOOTH",
"745 1120 OFFCURVE",
"772 1170 OFFCURVE",
"770 1250 QCURVE SMOOTH",
"772 1353 OFFCURVE",
"728 1400 OFFCURVE",
"670 1400 QCURVE SMOOTH",
"593 1400 OFFCURVE",
"498 1390 OFFCURVE",
"420 1390 QCURVE SMOOTH",
"334 1390 OFFCURVE",
"212 1400 OFFCURVE",
"160 1400 QCURVE SMOOTH",
"114 1400 OFFCURVE",
"56 1366 OFFCURVE",
"32 1298 OFFCURVE",
"30 1240 QCURVE SMOOTH",
"32 1118 OFFCURVE",
"52 905 OFFCURVE",
"50 730 QCURVE SMOOTH",
"52 565 OFFCURVE",
"26 287 OFFCURVE",
"30 160 QCURVE SMOOTH",
"29 90 OFFCURVE",
"95 0 OFFCURVE",
"170 0 QCURVE SMOOTH"
);
}
);
userData = {
com.schriftgestaltung.Glyphs.lastChange = "2019/06/14 15:34:32";
};
width = 800;
}
);
unicode = 0045;
},
{
color = 4;
glyphname = F;
layers = (
{
layerId = master01;
paths = (
{
closed = 1;
nodes = (
"320 0 OFFCURVE",
"390 60 OFFCURVE",
"390 150 QCURVE SMOOTH",
"390 210 OFFCURVE",
"380 400 OFFCURVE",
"380 440 QCURVE SMOOTH",
"380 520 OFFCURVE",
"420 570 OFFCURVE",
"460 570 QCURVE SMOOTH",
"490 570 OFFCURVE",
"570 560 OFFCURVE",
"620 560 QCURVE SMOOTH",
"687 560 OFFCURVE",
"720 605 OFFCURVE",
"720 700 QCURVE SMOOTH",
"720 810 OFFCURVE",
"680 850 OFFCURVE",
"620 850 QCURVE SMOOTH",
"570 850 OFFCURVE",
"500 840 OFFCURVE",
"460 840 QCURVE SMOOTH",
"410 840 OFFCURVE",
"380 881 OFFCURVE",
"380 990 QCURVE SMOOTH",
"380 1081 OFFCURVE",
"430 1130 OFFCURVE",
"500 1130 QCURVE SMOOTH",
"550 1130 OFFCURVE",
"620 1120 OFFCURVE",
"660 1120 QCURVE SMOOTH",
"720 1120 OFFCURVE",
"750 1150 OFFCURVE",
"750 1260 QCURVE SMOOTH",
"750 1360 OFFCURVE",
"710 1400 OFFCURVE",
"660 1400 QCURVE SMOOTH",
"590 1400 OFFCURVE",
"490 1390 OFFCURVE",
"400 1390 QCURVE SMOOTH",
"320 1390 OFFCURVE",
"240 1400 OFFCURVE",
"160 1400 QCURVE SMOOTH",
"93 1400 OFFCURVE",
"40 1323 OFFCURVE",
"40 1240 QCURVE SMOOTH",
"40 1120 OFFCURVE",
"60 884 OFFCURVE",
"60 690 QCURVE SMOOTH",
"60 525 OFFCURVE",
"40 240 OFFCURVE",
"40 150 QCURVE SMOOTH",
"40 50 OFFCURVE",
"90 0 OFFCURVE",
"220 0 QCURVE SMOOTH"
);
}
);
userData = {
com.schriftgestaltung.Glyphs.lastChange = "2019/06/15 13:52:01";
};
width = 750;
}
);
unicode = 0046;
},
{
color = 4;
glyphname = G;
layers = (
{
layerId = master01;
paths = (
{
closed = 1;
nodes = (
"650 280 OFFCURVE",
"600 280 QCURVE SMOOTH",
"530 280 OFFCURVE",
"430 380 OFFCURVE",
"370 532 OFFCURVE",
"370 710 QCURVE SMOOTH",
"370 887 OFFCURVE",
"501 1140 OFFCURVE",
"650 1140 QCURVE SMOOTH",
"712 1140 OFFCURVE",
"826 1110 OFFCURVE",
"870 1110 QCURVE SMOOTH",
"907 1110 OFFCURVE",
"960 1151 OFFCURVE",
"960 1250 QCURVE SMOOTH",
"960 1322 OFFCURVE",
"892 1367 OFFCURVE",
"840 1380 QCURVE SMOOTH",
"790 1392 OFFCURVE",
"683 1400 OFFCURVE",
"630 1400 QCURVE SMOOTH",
"385 1400 OFFCURVE",
"10 1043 OFFCURVE",
"10 730 QCURVE SMOOTH",
"10 550 OFFCURVE",
"110 270 OFFCURVE",
"270 90 OFFCURVE",
"520 -10 OFFCURVE",
"680 -10 QCURVE SMOOTH",
"860 -10 OFFCURVE",
"990 90 OFFCURVE",
"990 190 QCURVE SMOOTH",
"990 234 OFFCURVE",
"980 360 OFFCURVE",
"980 450 QCURVE SMOOTH",
"980 562 OFFCURVE",
"990 652 OFFCURVE",
"990 740 QCURVE SMOOTH",
"990 800 OFFCURVE",
"951 880 OFFCURVE",
"910 880 QCURVE SMOOTH",
"858 880 OFFCURVE",
"806 870 OFFCURVE",
"760 870 QCURVE SMOOTH",
"690 870 OFFCURVE",
"655 880 OFFCURVE",
"620 880 QCURVE SMOOTH",
"560 880 OFFCURVE",
"520 842 OFFCURVE",
"520 750 QCURVE SMOOTH",
"520 630 OFFCURVE",
"551 600 OFFCURVE",
"590 600 QCURVE SMOOTH",
"630 600 OFFCURVE",
"670 570 OFFCURVE",
"670 540 QCURVE SMOOTH",
"670 531 OFFCURVE",
"670 490 OFFCURVE",
"670 450 QCURVE SMOOTH",
"670 420 OFFCURVE",
"670 359 OFFCURVE",
"670 340 QCURVE SMOOTH",
"670 313 OFFCURVE"
);
}
);
userData = {
com.schriftgestaltung.Glyphs.lastChange = "2019/06/15 12:52:28";
};
width = 1030;
}
);
unicode = 0047;
},
{
color = 4;
glyphname = H;
layers = (
{
layerId = master01;
paths = (
{
closed = 1;
nodes = (
"317 0 OFFCURVE",
"390 70 OFFCURVE",
"390 150 QCURVE SMOOTH",
"390 212 OFFCURVE",
"380 345 OFFCURVE",
"380 410 QCURVE SMOOTH",
"380 520 OFFCURVE",
"410 590 OFFCURVE",
"490 590 QCURVE SMOOTH",
"570 590 OFFCURVE",
"610 540 OFFCURVE",
"610 410 QCURVE SMOOTH",
"610 350 OFFCURVE",
"600 212 OFFCURVE",
"600 150 QCURVE SMOOTH",
"600 50 OFFCURVE",
"683 0 OFFCURVE",
"780 0 QCURVE SMOOTH",
"883 0 OFFCURVE",
"940 80 OFFCURVE",
"940 160 QCURVE SMOOTH",
"940 300 OFFCURVE",
"920 540 OFFCURVE",
"920 730 QCURVE SMOOTH",
"920 900 OFFCURVE",
"940 1140 OFFCURVE",
"940 1240 QCURVE SMOOTH",
"940 1340 OFFCURVE",
"872 1400 OFFCURVE",
"760 1400 QCURVE SMOOTH",
"656 1400 OFFCURVE",
"600 1333 OFFCURVE",
"600 1240 QCURVE SMOOTH",
"600 1188 OFFCURVE",
"610 1090 OFFCURVE",
"610 1030 QCURVE SMOOTH",
"610 938 OFFCURVE",
"564 890 OFFCURVE",
"490 890 QCURVE SMOOTH",
"421 890 OFFCURVE",
"370 952 OFFCURVE",
"370 1030 QCURVE SMOOTH",
"370 1080 OFFCURVE",
"380 1180 OFFCURVE",
"380 1240 QCURVE SMOOTH",
"380 1333 OFFCURVE",
"326 1400 OFFCURVE",
"200 1400 QCURVE SMOOTH",
"96 1400 OFFCURVE",
"40 1333 OFFCURVE",
"40 1240 QCURVE SMOOTH",
"40 1150 OFFCURVE",
"60 908 OFFCURVE",
"60 750 QCURVE SMOOTH",
"60 590 OFFCURVE",
"39 315 OFFCURVE",
"40 160 QCURVE SMOOTH",
"34 65 OFFCURVE",
"95 0 OFFCURVE",
"200 0 QCURVE SMOOTH"
);
}
);
userData = {
com.schriftgestaltung.Glyphs.lastChange = "2019/06/14 15:34:32";
};
width = 980;
}
);
unicode = 0048;
},
{
color = 4;
glyphname = I;
layers = (
{
layerId = master01;
paths = (
{
closed = 1;
nodes = (
"310 0 OFFCURVE",
"380 50 OFFCURVE",
"380 140 QCURVE SMOOTH",
"380 280 OFFCURVE",
"360 543 OFFCURVE",
"360 700 QCURVE SMOOTH",
"360 850 OFFCURVE",
"380 1100 OFFCURVE",
"380 1230 QCURVE SMOOTH",
"380 1341 OFFCURVE",
"300 1400 OFFCURVE",
"210 1400 QCURVE SMOOTH",
"120 1400 OFFCURVE",
"40 1347 OFFCURVE",
"40 1260 QCURVE SMOOTH",
"40 1140 OFFCURVE",
"60 870 OFFCURVE",
"60 700 QCURVE SMOOTH",
"60 544 OFFCURVE",
"40 260 OFFCURVE",
"40 140 QCURVE SMOOTH",
"40 50 OFFCURVE",
"110 0 OFFCURVE",
"210 0 QCURVE SMOOTH"
);
}
);
userData = {
com.schriftgestaltung.Glyphs.lastChange = "2019/06/15 13:48:52";
};
width = 420;
}
);
unicode = 0049;
},
{
color = 4;
glyphname = J;
layers = (
{
layerId = master01;
paths = (
{
closed = 1;
nodes = (
"395 -10 OFFCURVE",
"580 163 OFFCURVE",
"580 270 QCURVE SMOOTH",
"580 370 OFFCURVE",
"560 744 OFFCURVE",
"560 830 QCURVE SMOOTH",
"560 910 OFFCURVE",
"570 1150 OFFCURVE",
"570 1240 QCURVE SMOOTH",
"570 1328 OFFCURVE",
"500 1400 OFFCURVE",
"390 1400 QCURVE SMOOTH",
"296 1400 OFFCURVE",
"220 1341 OFFCURVE",
"220 1240 QCURVE SMOOTH",
"220 1080 OFFCURVE",
"240 879 OFFCURVE",
"240 780 QCURVE SMOOTH",
"240 339 OFFCURVE",
"199 300 OFFCURVE",
"170 300 QCURVE SMOOTH",
"148 300 OFFCURVE",
"106 320 OFFCURVE",
"80 320 QCURVE SMOOTH",
"47 320 OFFCURVE",
"20 270 OFFCURVE",
"20 170 QCURVE SMOOTH",
"20 50 OFFCURVE",
"90 -10 OFFCURVE",
"240 -10 QCURVE SMOOTH"
);
}
);
userData = {
com.schriftgestaltung.Glyphs.lastChange = "2019/06/15 12:56:06";
};
width = 600;
}
);
unicode = 004A;
},
{
color = 4;
glyphname = K;
layers = (
{
layerId = master01;
paths = (
{
closed = 1;
nodes = (
"660 750 OFFCURVE",
"660 800 QCURVE SMOOTH",
"660 830 OFFCURVE",
"940 1287 OFFCURVE",
"940 1350 QCURVE SMOOTH",
"940 1380 OFFCURVE",
"900 1400 OFFCURVE",
"780 1400 QCURVE SMOOTH",
"584 1400 OFFCURVE",
"506 1039 OFFCURVE",
"431 910 OFFCURVE",
"400 910 QCURVE SMOOTH",
"380 910 OFFCURVE",
"360 935 OFFCURVE",
"360 990 QCURVE SMOOTH",
"360 1051 OFFCURVE",
"380 1219 OFFCURVE",
"380 1290 QCURVE SMOOTH",
"380 1339 OFFCURVE",
"327 1400 OFFCURVE",
"210 1400 QCURVE SMOOTH",
"90 1400 OFFCURVE",
"30 1350 OFFCURVE",
"30 1290 QCURVE SMOOTH",
"30 1157 OFFCURVE",
"50 823 OFFCURVE",
"50 730 QCURVE SMOOTH",
"50 593 OFFCURVE",
"30 201 OFFCURVE",
"30 110 QCURVE SMOOTH",
"30 40 OFFCURVE",
"90 0 OFFCURVE",
"200 0 QCURVE SMOOTH",
"290 0 OFFCURVE",
"370 30 OFFCURVE",
"370 90 QCURVE SMOOTH",
"370 186 OFFCURVE",
"350 349 OFFCURVE",
"350 440 QCURVE SMOOTH",
"350 549 OFFCURVE",
"383 590 OFFCURVE",
"400 590 QCURVE SMOOTH",
"424 590 OFFCURVE",
"538 332 OFFCURVE",
"590 90 QCURVE SMOOTH",
"601 40 OFFCURVE",
"693 0 OFFCURVE",
"790 0 QCURVE SMOOTH",
"908 0 OFFCURVE",
"960 18 OFFCURVE",
"960 60 QCURVE SMOOTH",
"960 113 OFFCURVE"
);
}
);
userData = {
com.schriftgestaltung.Glyphs.lastChange = "2019/06/15 13:29:48";
};
width = 980;
}
);
unicode = 004B;
},
{
color = 4;
glyphname = L;
layers = (
{
layerId = master01;
paths = (
{
closed = 1;
nodes = (
"249 0 OFFCURVE",
"341 10 OFFCURVE",
"420 10 QCURVE SMOOTH",
"507 10 OFFCURVE",
"612 0 OFFCURVE",
"680 0 QCURVE SMOOTH",
"723 0 OFFCURVE",
"762 54 OFFCURVE",
"760 150 QCURVE SMOOTH",
"758 260 OFFCURVE",
"722 310 OFFCURVE",
"670 310 QCURVE SMOOTH",
"622 310 OFFCURVE",
"534 290 OFFCURVE",
"460 290 QCURVE SMOOTH",
"415 290 OFFCURVE",
"362 352 OFFCURVE",
"360 730 QCURVE SMOOTH",
"359 828 OFFCURVE",
"388 1150 OFFCURVE",
"390 1240 QCURVE SMOOTH",
"392 1345 OFFCURVE",
"325 1400 OFFCURVE",
"210 1400 QCURVE SMOOTH",
"94 1400 OFFCURVE",
"33 1354 OFFCURVE",
"30 1240 QCURVE SMOOTH",
"28 1153 OFFCURVE",
"42 917 OFFCURVE",
"40 730 QCURVE SMOOTH",
"38 565 OFFCURVE",
"26 287 OFFCURVE",
"30 160 QCURVE SMOOTH",
"29 90 OFFCURVE",
"95 0 OFFCURVE",
"170 0 QCURVE SMOOTH"
);
}
);
userData = {
com.schriftgestaltung.Glyphs.lastChange = "2019/06/15 12:58:33";
};
width = 770;
}
);
unicode = 004C;
},
{
color = 4;
glyphname = M;
layers = (
{
layerId = master01;
paths = (
{
closed = 1;
nodes = (
"647 900 OFFCURVE",
"620 900 QCURVE SMOOTH",
"570 900 OFFCURVE",
"398 1377 OFFCURVE",
"298 1420 OFFCURVE",
"220 1420 QCURVE SMOOTH",
"78 1420 OFFCURVE",
"20 1344 OFFCURVE",
"20 1230 QCURVE SMOOTH",
"20 1130 OFFCURVE",
"49 706 OFFCURVE",
"50 460 QCURVE SMOOTH",
"50 394 OFFCURVE",
"40 244 OFFCURVE",
"36 160 QCURVE SMOOTH",
"32 73 OFFCURVE",
"77 0 OFFCURVE",
"156 0 QCURVE SMOOTH",
"305 0 OFFCURVE",
"381 60 OFFCURVE",
"376 160 QCURVE SMOOTH",
"363 435 OFFCURVE",
"362 730 OFFCURVE",
"386 730 QCURVE SMOOTH",
"410 730 OFFCURVE",
"456 592 OFFCURVE",
"546 408 OFFCURVE",
"586 358 OFFCURVE",
"616 360 QCURVE SMOOTH",
"668 363 OFFCURVE",
"751 561 OFFCURVE",
"802 675 OFFCURVE",
"828 730 OFFCURVE",
"860 730 QCURVE SMOOTH",
"894 730 OFFCURVE",
"874 400 OFFCURVE",
"850 160 QCURVE SMOOTH",
"844 104 OFFCURVE",
"897 0 OFFCURVE",
"976 0 QCURVE SMOOTH",
"1139 0 OFFCURVE",
"1194 67 OFFCURVE",
"1196 160 QCURVE SMOOTH",
"1198 260 OFFCURVE",
"1180 543 OFFCURVE",
"1180 670 QCURVE SMOOTH",
"1180 761 OFFCURVE",
"1198 1187 OFFCURVE",
"1196 1260 QCURVE SMOOTH",
"1193 1360 OFFCURVE",
"1134 1420 OFFCURVE",
"1076 1420 QCURVE SMOOTH",
"876 1420 OFFCURVE",
"820 1373 OFFCURVE"
);
}
);
userData = {
com.schriftgestaltung.Glyphs.lastChange = "2019/06/15 13:09:36";
};
width = 1230;
}
);
unicode = 004D;
},
{
color = 4;
glyphname = N;
layers = (
{
layerId = master01;
paths = (
{
closed = 1;
nodes = (
"318 0 OFFCURVE",
"390 77 OFFCURVE",
"390 130 QCURVE SMOOTH",
"390 224 OFFCURVE",
"360 510 OFFCURVE",
"346 632 OFFCURVE",
"364 670 OFFCURVE",
"380 670 QCURVE SMOOTH",
"406 670 OFFCURVE",
"558 390 OFFCURVE",
"660 90 QCURVE SMOOTH",
"681 29 OFFCURVE",
"758 0 OFFCURVE",
"840 0 QCURVE SMOOTH",
"949 0 OFFCURVE",
"1006 78 OFFCURVE",
"1010 160 QCURVE SMOOTH",
"1006 290 OFFCURVE",
"1000 580 OFFCURVE",
"1000 720 QCURVE SMOOTH",
"1000 839 OFFCURVE",
"1010 1103 OFFCURVE",
"1010 1240 QCURVE SMOOTH",
"1010 1336 OFFCURVE",
"938 1400 OFFCURVE",
"860 1400 QCURVE SMOOTH",
"760 1400 OFFCURVE",
"660 1344 OFFCURVE",
"653 1228 OFFCURVE",
"694 796 OFFCURVE",
"677 760 OFFCURVE",
"660 760 QCURVE SMOOTH",
"649 760 OFFCURVE",
"487 1004 OFFCURVE",
"380 1330 QCURVE SMOOTH",
"370 1361 OFFCURVE",
"311 1400 OFFCURVE",
"210 1400 QCURVE SMOOTH",
"105 1400 OFFCURVE",
"40 1350 OFFCURVE",
"40 1240 QCURVE SMOOTH",
"40 1151 OFFCURVE",
"50 875 OFFCURVE",
"50 720 QCURVE SMOOTH",
"50 568 OFFCURVE",
"40 329 OFFCURVE",
"40 130 QCURVE SMOOTH",
"40 49 OFFCURVE",
"112 0 OFFCURVE",
"220 0 QCURVE SMOOTH"
);
}
);
userData = {
com.schriftgestaltung.Glyphs.lastChange = "2019/06/15 13:11:27";
};
width = 1050;
}
);
unicode = 004E;
},
{
color = 4;
glyphname = O;
layers = (
{
layerId = master01;
paths = (
{
closed = 1;
nodes = (
"661 -20 OFFCURVE",
"905 172 OFFCURVE",
"910 700 QCURVE",
"911 1173 OFFCURVE",
"683 1420 OFFCURVE",
"470 1420 QCURVE SMOOTH",
"264 1420 OFFCURVE",
"31 1185 OFFCURVE",
"30 700 QCURVE",
"41 159 OFFCURVE",
"267 -20 OFFCURVE",
"470 -20 QCURVE SMOOTH"
);
},
{
closed = 1;
nodes = (
"421 260 OFFCURVE",
"364 362 OFFCURVE",
"360 700 QCURVE",
"361 1045 OFFCURVE",
"407 1142 OFFCURVE",
"470 1140 QCURVE SMOOTH",
"532 1138 OFFCURVE",
"581 1037 OFFCURVE",
"580 700 QCURVE",
"578 364 OFFCURVE",
"521 260 OFFCURVE",
"470 260 QCURVE SMOOTH"
);
}
);
userData = {
com.schriftgestaltung.Glyphs.lastChange = "2019/08/21 04:10:35";
};
width = 940;
}
);
unicode = 004F;
},
{
color = 4;
glyphname = P;
layers = (
{
layerId = master01;
paths = (
{
closed = 1;
nodes = (
"330 0 OFFCURVE",
"394 66 OFFCURVE",
"400 140 QCURVE SMOOTH",
"394 212 OFFCURVE",
"380 335 OFFCURVE",
"380 430 QCURVE SMOOTH",
"380 470 OFFCURVE",
"400 490 OFFCURVE",
"430 490 QCURVE SMOOTH",
"450 490 OFFCURVE",
"526 480 OFFCURVE",
"580 480 QCURVE SMOOTH",
"703 480 OFFCURVE",
"930 690 OFFCURVE",
"930 1000 QCURVE SMOOTH",
"930 1216 OFFCURVE",
"770 1400 OFFCURVE",
"630 1400 QCURVE SMOOTH",
"560 1400 OFFCURVE",
"471 1393 OFFCURVE",
"420 1390 QCURVE SMOOTH",
"350 1393 OFFCURVE",
"242 1400 OFFCURVE",
"150 1400 QCURVE SMOOTH",
"93 1400 OFFCURVE",
"36 1346 OFFCURVE",
"36 1260 QCURVE SMOOTH",
"36 1168 OFFCURVE",
"50 750 OFFCURVE",
"50 670 QCURVE SMOOTH",
"50 594 OFFCURVE",
"30 240 OFFCURVE",
"30 140 QCURVE SMOOTH",
"30 82 OFFCURVE",
"80 0 OFFCURVE",
"190 0 QCURVE SMOOTH"
);
},
{
closed = 1;
nodes = (
"400 770 OFFCURVE",
"370 814 OFFCURVE",
"370 850 QCURVE SMOOTH",
"370 910 OFFCURVE",
"370 970 OFFCURVE",
"370 1050 QCURVE SMOOTH",
"370 1110 OFFCURVE",
"420 1150 OFFCURVE",
"460 1150 QCURVE SMOOTH",
"520 1150 OFFCURVE",
"580 1050 OFFCURVE",
"580 1000 QCURVE SMOOTH",
"580 880 OFFCURVE",
"540 770 OFFCURVE",
"470 770 QCURVE SMOOTH"
);
}
);
userData = {
com.schriftgestaltung.Glyphs.lastChange = "2019/06/15 13:39:01";
};
width = 940;
}
);
unicode = 0050;
},
{
color = 4;
glyphname = Q;
layers = (
{
layerId = master01;
paths = (
{
closed = 1;
nodes = (
"260 0 OFFCURVE",
"264 90 OFFCURVE",
"326 200 OFFCURVE",
"380 200 QCURVE SMOOTH",
"501 200 OFFCURVE",
"670 0 OFFCURVE",
"850 0 QCURVE SMOOTH",
"890 0 OFFCURVE",
"950 40 OFFCURVE",
"950 80 QCURVE SMOOTH",
"950 299 OFFCURVE",
"920 380 OFFCURVE",
"840 347 OFFCURVE",
"760 309 OFFCURVE",
"680 369 OFFCURVE",
"680 420 QCURVE SMOOTH",
"680 447 OFFCURVE",
"727 480 OFFCURVE",
"910 622 OFFCURVE",
"910 910 QCURVE SMOOTH",
"910 1175 OFFCURVE",
"679 1423 OFFCURVE",
"470 1420 QCURVE SMOOTH",
"225 1416 OFFCURVE",
"20 1159 OFFCURVE",
"20 920 QCURVE SMOOTH",
"20 700 OFFCURVE",
"144 491 OFFCURVE",
"230 434 OFFCURVE",
"230 400 QCURVE SMOOTH",
"230 380 OFFCURVE",
"90 314 OFFCURVE",
"20 148 OFFCURVE",
"20 39 OFFCURVE",
"42 0 OFFCURVE",
"100 0 QCURVE SMOOTH"
);
},
{
closed = 1;
nodes = (
"420 660 OFFCURVE",
"350 800 OFFCURVE",
"350 890 QCURVE SMOOTH",
"350 1020 OFFCURVE",
"420 1140 OFFCURVE",
"480 1140 QCURVE SMOOTH",
"530 1140 OFFCURVE",
"580 1050 OFFCURVE",
"580 930 QCURVE SMOOTH",
"580 800 OFFCURVE",
"540 660 OFFCURVE",
"470 660 QCURVE SMOOTH"
);
}
);
userData = {
com.schriftgestaltung.Glyphs.lastChange = "2019/06/15 13:39:05";
};
width = 980;
}
);
unicode = 0051;
},
{
color = 4;
glyphname = R;
lastChange = "2019-12-08 01:17:12 +0000";
layers = (
{
layerId = master01;
paths = (
{
closed = 1;
nodes = (
"330 0 OFFCURVE",
"380 63 OFFCURVE",
"380 160 QCURVE SMOOTH",
"380 200 OFFCURVE",
"370 314 OFFCURVE",
"370 350 QCURVE SMOOTH",
"370 400 OFFCURVE",
"376 480 OFFCURVE",
"400 480 QCURVE SMOOTH",
"444 480 OFFCURVE",
"478 384 OFFCURVE",
"490 340 QCURVE SMOOTH",
"523 219 OFFCURVE",
"598 -10 OFFCURVE",
"760 -10 QCURVE SMOOTH",
"859 -10 OFFCURVE",
"950 104 OFFCURVE",
"950 250 QCURVE SMOOTH",
"950 347 OFFCURVE",
"920 390 OFFCURVE",
"870 390 QCURVE SMOOTH",
"794 390 OFFCURVE",
"720 466 OFFCURVE",
"720 520 QCURVE SMOOTH",
"720 567 OFFCURVE",
"930 784 OFFCURVE",
"930 960 QCURVE SMOOTH",
"930 1234 OFFCURVE",
"694 1400 OFFCURVE",
"610 1400 QCURVE SMOOTH",
"549 1400 OFFCURVE",
"463 1390 OFFCURVE",
"380 1390 QCURVE SMOOTH",
"305 1390 OFFCURVE",
"222 1400 OFFCURVE",
"160 1400 QCURVE SMOOTH",
"98 1400 OFFCURVE",
"40 1348 OFFCURVE",
"40 1290 QCURVE SMOOTH",
"40 1122 OFFCURVE",
"50 754 OFFCURVE",
"50 630 QCURVE SMOOTH",
"50 458 OFFCURVE",
"31 271 OFFCURVE",
"30 160 QCURVE SMOOTH",
"29 53 OFFCURVE",
"90 0 OFFCURVE",
"190 0 QCURVE SMOOTH"
);
},
{
closed = 1;
nodes = (
"402 760 OFFCURVE",
"370 798 OFFCURVE",
"370 950 QCURVE SMOOTH",
"370 1090 OFFCURVE",
"411 1130 OFFCURVE",
"450 1130 QCURVE SMOOTH",
"500 1130 OFFCURVE",
"580 1041 OFFCURVE",
"580 940 QCURVE SMOOTH",
"580 830 OFFCURVE",
"524 760 OFFCURVE",
"450 760 QCURVE SMOOTH"
);
}
);
userData = {
com.schriftgestaltung.Glyphs.lastChange = "2019/06/14 15:34:32";
};
width = 970;
}
);
unicode = 0052;
},
{
color = 4;
glyphname = S;
layers = (
{
layerId = master01;
paths = (
{
closed = 1;
nodes = (
"38 932 OFFCURVE",
"88 814 OFFCURVE",
"186 700 OFFCURVE",
"312 576 QCURVE SMOOTH",
"358 532 OFFCURVE",
"418 458 OFFCURVE",
"436 406 OFFCURVE",
"436 376 QCURVE SMOOTH",
"436 344 OFFCURVE",
"384 290 OFFCURVE",
"324 270 OFFCURVE",
"304 270 QCURVE SMOOTH",
"240 270 OFFCURVE",
"112 330 OFFCURVE",
"90 330 QCURVE SMOOTH",
"56 330 OFFCURVE",
"20 247 OFFCURVE",
"20 110 QCURVE SMOOTH",
"20 54 OFFCURVE",
"141 -10 OFFCURVE",
"312 -10 QCURVE SMOOTH",
"420 -10 OFFCURVE",
"504 12 QCURVE SMOOTH",
"574 32 OFFCURVE",
"684 112 OFFCURVE",
"718 162 QCURVE SMOOTH",
"754 216 OFFCURVE",
"772 338 OFFCURVE",
"772 416 QCURVE SMOOTH",
"772 566 OFFCURVE",
"634 792 OFFCURVE",
"486 914 QCURVE SMOOTH",
"428 960 OFFCURVE",
"390 1026 OFFCURVE",
"390 1072 QCURVE SMOOTH",
"390 1152 OFFCURVE",
"476 1152 QCURVE SMOOTH",
"513 1152 OFFCURVE",
"590 1130 OFFCURVE",
"638 1130 QCURVE SMOOTH",
"730 1130 OFFCURVE",
"730 1190 QCURVE SMOOTH",
"730 1346 OFFCURVE",
"550 1430 OFFCURVE",
"452 1430 QCURVE SMOOTH",
"226 1430 OFFCURVE",
"38 1206 OFFCURVE",
"38 1006 QCURVE SMOOTH"
);
}
);
userData = {
com.schriftgestaltung.Glyphs.lastChange = "2019/06/15 12:39:02";
};
width = 790;
}
);
unicode = 0053;
},
{
color = 4;
glyphname = T;
layers = (
{
layerId = master01;
paths = (
{
closed = 1;
nodes = (
"490 0 OFFCURVE",
"560 50 OFFCURVE",
"560 140 QCURVE SMOOTH",
"560 280 OFFCURVE",
"550 423 OFFCURVE",
"550 580 QCURVE SMOOTH",
"550 730 OFFCURVE",
"556 920 OFFCURVE",
"560 1050 QCURVE SMOOTH",
"561 1090 OFFCURVE",
"580 1120 OFFCURVE",
"610 1120 QCURVE SMOOTH",
"640 1120 OFFCURVE",
"670 1110 OFFCURVE",
"700 1110 QCURVE SMOOTH",
"733 1110 OFFCURVE",
"760 1150 OFFCURVE",
"760 1260 QCURVE SMOOTH",
"760 1350 OFFCURVE",
"710 1400 OFFCURVE",
"660 1400 QCURVE SMOOTH",
"597 1400 OFFCURVE",
"477 1390 OFFCURVE",
"390 1390 QCURVE SMOOTH",
"279 1390 OFFCURVE",
"163 1400 OFFCURVE",
"110 1400 QCURVE SMOOTH",
"60 1400 OFFCURVE",
"20 1350 OFFCURVE",
"20 1260 QCURVE SMOOTH",
"20 1153 OFFCURVE",
"47 1110 OFFCURVE",
"70 1110 QCURVE SMOOTH",
"100 1110 OFFCURVE",
"140 1120 OFFCURVE",
"170 1120 QCURVE SMOOTH",
"200 1120 OFFCURVE",
"217 1090 OFFCURVE",
"220 1050 QCURVE SMOOTH",
"230 920 OFFCURVE",
"230 750 OFFCURVE",
"230 580 QCURVE SMOOTH",
"230 424 OFFCURVE",
"220 277 OFFCURVE",
"220 140 QCURVE SMOOTH",
"220 50 OFFCURVE",
"290 0 OFFCURVE",
"390 0 QCURVE SMOOTH"
);
}
);
userData = {
com.schriftgestaltung.Glyphs.lastChange = "2019/08/21 03:47:56";
};
width = 780;
}
);
unicode = 0054;
},
{
color = 4;
glyphname = U;
layers = (
{
layerId = master01;
paths = (
{
closed = 1;
nodes = (
"913 505 OFFCURVE",
"890 800 OFFCURVE",
"890 840 QCURVE SMOOTH",
"890 893 OFFCURVE",
"911 1208 OFFCURVE",
"914 1262 QCURVE SMOOTH",
"914 1318 OFFCURVE",
"838 1420 OFFCURVE",
"794 1420 QCURVE SMOOTH",
"645 1420 OFFCURVE",
"574 1318 OFFCURVE",
"573 1214 OFFCURVE",
"597 851 OFFCURVE",
"597 727 OFFCURVE",
"593 350 OFFCURVE",
"574 270 OFFCURVE",
"484 270 QCURVE SMOOTH",
"436 270 OFFCURVE",
"374 336 OFFCURVE",
"350 789 OFFCURVE",
"351 877 OFFCURVE",
"371 1215 OFFCURVE",
"374 1318 OFFCURVE",
"356 1386 OFFCURVE",
"258 1420 OFFCURVE",
"210 1420 QCURVE SMOOTH",
"100 1420 OFFCURVE",
"33 1325 OFFCURVE",
"38 1095 OFFCURVE",
"47 993 OFFCURVE",
"50 900 OFFCURVE",
"50 830 QCURVE SMOOTH",
"51 783 OFFCURVE",
"30 512 OFFCURVE",
"30 420 QCURVE SMOOTH",
"30 250 OFFCURVE",
"94 98 OFFCURVE",
"208 24 OFFCURVE",
"370 -10 OFFCURVE",
"484 -10 QCURVE SMOOTH",
"592 -10 OFFCURVE",
"770 30 OFFCURVE",
"874 124 OFFCURVE",
"914 270 OFFCURVE",
"910 410 QCURVE SMOOTH"
);
}
);
userData = {
com.schriftgestaltung.Glyphs.lastChange = "2019/06/15 14:35:29";
};
width = 950;
}
);
unicode = 0055;
},
{
color = 4;
glyphname = V;
layers = (
{
layerId = master01;
paths = (
{
closed = 1;
nodes = (
"552 442 OFFCURVE",
"543 350 OFFCURVE",
"482 353 OFFCURVE",
"464 436 OFFCURVE",
"440 780 OFFCURVE",
"401 1254 OFFCURVE",
"358 1386 OFFCURVE",
"304 1424 OFFCURVE",
"166 1424 QCURVE SMOOTH",
"68 1424 OFFCURVE",
"20 1376 OFFCURVE",
"20 1332 QCURVE SMOOTH",
"20 1246 OFFCURVE",
"149 670 OFFCURVE",
"188 344 OFFCURVE",
"230 160 QCURVE SMOOTH",
"266 -12 OFFCURVE",
"530 0 QCURVE SMOOTH",
"786 4 OFFCURVE",
"810 290 QCURVE SMOOTH",
"838 619 OFFCURVE",
"967 1198 OFFCURVE",
"980 1386 OFFCURVE",
"912 1422 OFFCURVE",
"840 1422 QCURVE SMOOTH",
"695 1422 OFFCURVE",
"634 1264 OFFCURVE",
"571 788 OFFCURVE"
);
}
);
userData = {
com.schriftgestaltung.Glyphs.lastChange = "2019/06/15 14:37:18";
};
width = 1000;
}
);
unicode = 0056;
},
{
color = 4;
glyphname = W;
layers = (
{
layerId = master01;
paths = (
{
closed = 1;
nodes = (
"548 -10 OFFCURVE",
"573 1 OFFCURVE",
"632 88 OFFCURVE",
"671 248 OFFCURVE",
"690 378 OFFCURVE",
"747 384 OFFCURVE",
"784 260 OFFCURVE",
"850 0 OFFCURVE",
"1060 0 QCURVE SMOOTH",
"1093 0 OFFCURVE",
"1186 24 OFFCURVE",
"1220 84 OFFCURVE",
"1293 780 OFFCURVE",
"1403 1152 OFFCURVE",
"1405 1392 OFFCURVE",
"1133 1410 OFFCURVE",
"1030 1312 OFFCURVE",
"1060 469 OFFCURVE",
"900 459 OFFCURVE",
"834 900 OFFCURVE",
"890 1300 OFFCURVE",
"866 1404 OFFCURVE",
"570 1409 OFFCURVE",
"530 1285 OFFCURVE",
"584 909 OFFCURVE",
"550 459 OFFCURVE",
"440 449 OFFCURVE",
"360 890 OFFCURVE",
"348 1357 OFFCURVE",
"314 1406 OFFCURVE",
"42 1406 OFFCURVE",
"20 1267 OFFCURVE",
"105 960 OFFCURVE",
"226 118 OFFCURVE",
"320 -10 OFFCURVE",
"380 -10 QCURVE SMOOTH"
);
}
);
userData = {
com.schriftgestaltung.Glyphs.lastChange = "2019/06/15 14:41:19";
};
width = 1430;
}
);
unicode = 0057;
},
{
color = 4;
glyphname = X;
layers = (
{
layerId = master01;
paths = (
{
closed = 1;
nodes = (
"374 2 OFFCURVE",
"410 270 OFFCURVE",
"473 490 OFFCURVE",
"510 493 OFFCURVE",
"580 280 OFFCURVE",
"610 0 OFFCURVE",
"1004 -6 OFFCURVE",
"1004 70 OFFCURVE",
"934 276 OFFCURVE",
"750 728 OFFCURVE",
"750 750 QCURVE SMOOTH",
"750 776 OFFCURVE",
"980 1304 OFFCURVE",
"980 1348 OFFCURVE",
"928 1400 OFFCURVE",
"850 1400 QCURVE SMOOTH",
"747 1400 OFFCURVE",
"650 1380 OFFCURVE",
"608 1256 OFFCURVE",
"520 950 OFFCURVE",
"490 950 OFFCURVE",
"454 1152 OFFCURVE",
"420 1278 OFFCURVE",
"370 1390 OFFCURVE",
"335 1399 OFFCURVE",
"97 1401 OFFCURVE",
"40 1402 OFFCURVE",
"40 1303 OFFCURVE",
"246 776 OFFCURVE",
"250 750 QCURVE SMOOTH",
"246 728 OFFCURVE",
"20 125 OFFCURVE",
"24 -1 OFFCURVE",
"160 0 QCURVE SMOOTH"
);
}
);
userData = {
com.schriftgestaltung.Glyphs.lastChange = "2019/06/15 14:45:05";
};
width = 1020;
}
);
unicode = 0058;
},
{
color = 4;
glyphname = Y;
layers = (
{
layerId = master01;
paths = (
{
closed = 1;
nodes = (
"596 0 OFFCURVE",
"660 51 OFFCURVE",
"660 100 QCURVE SMOOTH",
"660 150 OFFCURVE",
"650 217 OFFCURVE",
"650 270 QCURVE SMOOTH",
"650 339 OFFCURVE",
"650 440 OFFCURVE",
"660 480 QCURVE SMOOTH",
"676 545 OFFCURVE",
"803 883 OFFCURVE",
"980 1280 OFFCURVE",
"980 1330 QCURVE SMOOTH",
"980 1371 OFFCURVE",
"950 1400 OFFCURVE",
"820 1400 QCURVE SMOOTH",
"693 1400 OFFCURVE",
"635 1374 OFFCURVE",
"620 1330 QCURVE SMOOTH",
"601 1273 OFFCURVE",
"580 1105 OFFCURVE",
"530 920 OFFCURVE",
"510 920 QCURVE SMOOTH",
"490 920 OFFCURVE",
"437 1097 OFFCURVE",
"388 1303 OFFCURVE",
"370 1340 QCURVE SMOOTH",
"350 1380 OFFCURVE",
"304 1400 OFFCURVE",
"210 1400 QCURVE SMOOTH",
"66 1400 OFFCURVE",
"20 1366 OFFCURVE",
"20 1330 QCURVE SMOOTH",
"20 1269 OFFCURVE",
"199 870 OFFCURVE",
"299 563 OFFCURVE",
"320 480 QCURVE SMOOTH",
"330 440 OFFCURVE",
"330 340 OFFCURVE",
"330 270 QCURVE SMOOTH",
"330 210 OFFCURVE",
"320 142 OFFCURVE",
"320 100 QCURVE SMOOTH",
"320 47 OFFCURVE",
"380 0 OFFCURVE",
"490 0 QCURVE SMOOTH"
);
}
);
userData = {
com.schriftgestaltung.Glyphs.lastChange = "2019/06/15 14:45:03";
};
width = 1000;
}
);
unicode = 0059;
},
{
color = 4;
glyphname = Z;
layers = (
{
layerId = master01;
paths = (
{
closed = 1;
nodes = (
"714 896 OFFCURVE",
"766 1000 QCURVE SMOOTH",
"784 1036 OFFCURVE",
"846 1150 OFFCURVE",
"854 1192 OFFCURVE",
"854 1214 QCURVE SMOOTH",
"854 1306 OFFCURVE",
"830 1392 OFFCURVE",
"763 1430 OFFCURVE",
"678 1420 QCURVE SMOOTH",
"590 1410 OFFCURVE",
"450 1410 OFFCURVE",
"290 1410 OFFCURVE",
"182 1420 QCURVE SMOOTH",
"137 1424 OFFCURVE",
"80 1390 OFFCURVE",
"62 1330 OFFCURVE",
"62 1280 QCURVE SMOOTH",
"62 1232 LINE SMOOTH",
"62 1180 OFFCURVE",
"118 1140 OFFCURVE",
"168 1140 QCURVE SMOOTH",
"320 1144 LINE",
"416 1144 LINE SMOOTH",
"448 1144 OFFCURVE",
"474 1122 OFFCURVE",
"474 1108 QCURVE SMOOTH",
"474 1098 OFFCURVE",
"466 1082 QCURVE SMOOTH",
"278 736 OFFCURVE",
"136 464 QCURVE SMOOTH",
"116 424 OFFCURVE",
"44 302 OFFCURVE",
"32 258 OFFCURVE",
"32 236 QCURVE SMOOTH",
"32 138 LINE SMOOTH",
"32 76 OFFCURVE",
"86 0 OFFCURVE",
"158 0 QCURVE SMOOTH",
"319 10 OFFCURVE",
"440 10 QCURVE SMOOTH",
"590 10 OFFCURVE",
"700 10 OFFCURVE",
"780 0 QCURVE SMOOTH",
"839 -7 OFFCURVE",
"872 28 OFFCURVE",
"872 58 QCURVE SMOOTH",
"872 200 LINE SMOOTH",
"872 310 OFFCURVE",
"762 304 QCURVE SMOOTH",
"679 299 OFFCURVE",
"600 290 OFFCURVE",
"552 290 OFFCURVE",
"500 290 QCURVE SMOOTH",
"460 290 OFFCURVE",
"438 320 QCURVE",
"448 356 LINE"
);
}
);
userData = {
com.schriftgestaltung.Glyphs.lastChange = "2019/06/15 14:45:23";
};
width = 900;
}
);
unicode = 005A;
},
{
color = 4;
glyphname = R.alt.001;
layers = (
{
layerId = master01;
paths = (
{
closed = 1;
nodes = (
"330 0 OFFCURVE",
"380 63 OFFCURVE",
"380 160 QCURVE SMOOTH",
"380 200 OFFCURVE",
"370 314 OFFCURVE",
"370 350 QCURVE SMOOTH",
"370 400 OFFCURVE",
"376 480 OFFCURVE",
"400 480 QCURVE SMOOTH",
"444 480 OFFCURVE",
"478 384 OFFCURVE",
"490 340 QCURVE SMOOTH",
"523 219 OFFCURVE",
"688 -10 OFFCURVE",
"850 -10 QCURVE SMOOTH",
"1008 -10 OFFCURVE",
"1160 147 OFFCURVE",
"1160 270 QCURVE SMOOTH",
"1160 343 OFFCURVE",
"1100 400 OFFCURVE",
"1050 400 QCURVE SMOOTH",
"1000 400 OFFCURVE",
"906 370 OFFCURVE",
"850 370 QCURVE SMOOTH",
"790 370 OFFCURVE",
"700 464 OFFCURVE",
"700 520 QCURVE SMOOTH",
"700 567 OFFCURVE",
"813 632 OFFCURVE",
"930 784 OFFCURVE",
"930 960 QCURVE SMOOTH",
"930 1234 OFFCURVE",
"694 1400 OFFCURVE",
"610 1400 QCURVE SMOOTH",
"549 1400 OFFCURVE",
"463 1390 OFFCURVE",
"380 1390 QCURVE SMOOTH",
"305 1390 OFFCURVE",
"222 1400 OFFCURVE",
"160 1400 QCURVE SMOOTH",
"98 1400 OFFCURVE",
"40 1348 OFFCURVE",
"40 1290 QCURVE SMOOTH",
"40 1072 OFFCURVE",
"50 754 OFFCURVE",
"50 630 QCURVE SMOOTH",
"50 458 OFFCURVE",
"31 271 OFFCURVE",
"30 160 QCURVE SMOOTH",
"29 53 OFFCURVE",
"90 0 OFFCURVE",
"190 0 QCURVE SMOOTH"
);
},
{
closed = 1;
nodes = (
"411 760 OFFCURVE",
"370 798 OFFCURVE",
"370 950 QCURVE SMOOTH",
"370 1090 OFFCURVE",
"400 1130 OFFCURVE",
"450 1130 QCURVE SMOOTH",
"500 1130 OFFCURVE",
"580 1041 OFFCURVE",
"580 940 QCURVE SMOOTH",
"580 830 OFFCURVE",
"524 760 OFFCURVE",
"450 760 QCURVE SMOOTH"
);
}
);
userData = {
com.schriftgestaltung.Glyphs.lastChange = "2019/06/14 15:34:32";
};
width = 970;
}
);
},
{
color = 4;
glyphname = R.alt;
layers = (
{
layerId = master01;
paths = (
{
closed = 1;
nodes = (
"330 0 OFFCURVE",
"380 63 OFFCURVE",
"380 160 QCURVE SMOOTH",
"380 200 OFFCURVE",
"370 314 OFFCURVE",
"370 350 QCURVE SMOOTH",
"370 400 OFFCURVE",
"376 480 OFFCURVE",
"400 480 QCURVE SMOOTH",
"444 480 OFFCURVE",
"478 384 OFFCURVE",
"490 340 QCURVE SMOOTH",
"523 219 OFFCURVE",
"688 -10 OFFCURVE",
"850 -10 QCURVE SMOOTH",
"1008 -10 OFFCURVE",
"1160 147 OFFCURVE",
"1160 270 QCURVE SMOOTH",
"1160 343 OFFCURVE",
"1100 400 OFFCURVE",
"1050 400 QCURVE SMOOTH",
"1000 400 OFFCURVE",
"906 370 OFFCURVE",
"850 370 QCURVE SMOOTH",
"790 370 OFFCURVE",
"700 464 OFFCURVE",
"700 520 QCURVE SMOOTH",
"700 567 OFFCURVE",
"813 632 OFFCURVE",
"930 784 OFFCURVE",
"930 960 QCURVE SMOOTH",
"930 1234 OFFCURVE",
"694 1400 OFFCURVE",
"610 1400 QCURVE SMOOTH",
"549 1400 OFFCURVE",
"463 1390 OFFCURVE",
"380 1390 QCURVE SMOOTH",
"305 1390 OFFCURVE",
"222 1400 OFFCURVE",
"160 1400 QCURVE SMOOTH",
"98 1400 OFFCURVE",
"40 1348 OFFCURVE",
"40 1290 QCURVE SMOOTH",
"40 1072 OFFCURVE",
"50 754 OFFCURVE",
"50 630 QCURVE SMOOTH",
"50 458 OFFCURVE",
"31 271 OFFCURVE",
"30 160 QCURVE SMOOTH",
"29 53 OFFCURVE",
"90 0 OFFCURVE",
"190 0 QCURVE SMOOTH"
);
},
{
closed = 1;
nodes = (
"411 760 OFFCURVE",
"370 798 OFFCURVE",
"370 950 QCURVE SMOOTH",
"370 1090 OFFCURVE",
"400 1130 OFFCURVE",
"450 1130 QCURVE SMOOTH",
"500 1130 OFFCURVE",
"580 1041 OFFCURVE",
"580 940 QCURVE SMOOTH",
"580 830 OFFCURVE",
"524 760 OFFCURVE",
"450 760 QCURVE SMOOTH"
);
}
);
userData = {
com.schriftgestaltung.Glyphs.lastChange = "2019/06/14 15:34:32";
};
width = 970;
}
);
},
{
glyphname = r;
layers = (
{
layerId = master01;
paths = (
{
closed = 1;
nodes = (
"330 0 OFFCURVE",
"380 63 OFFCURVE",
"380 160 QCURVE SMOOTH",
"380 200 OFFCURVE",
"370 314 OFFCURVE",
"370 350 QCURVE SMOOTH",
"370 400 OFFCURVE",
"376 480 OFFCURVE",
"400 480 QCURVE SMOOTH",
"444 480 OFFCURVE",
"478 384 OFFCURVE",
"490 340 QCURVE SMOOTH",
"523 219 OFFCURVE",
"688 -10 OFFCURVE",
"850 -10 QCURVE SMOOTH",
"1008 -10 OFFCURVE",
"1160 147 OFFCURVE",
"1160 270 QCURVE SMOOTH",
"1160 343 OFFCURVE",
"1100 400 OFFCURVE",
"1050 400 QCURVE SMOOTH",
"1000 400 OFFCURVE",
"906 370 OFFCURVE",
"850 370 QCURVE SMOOTH",
"790 370 OFFCURVE",
"700 464 OFFCURVE",
"700 520 QCURVE SMOOTH",
"700 567 OFFCURVE",
"813 632 OFFCURVE",
"930 784 OFFCURVE",
"930 960 QCURVE SMOOTH",
"930 1234 OFFCURVE",
"694 1400 OFFCURVE",
"610 1400 QCURVE SMOOTH",
"549 1400 OFFCURVE",
"463 1390 OFFCURVE",
"380 1390 QCURVE SMOOTH",
"305 1390 OFFCURVE",
"222 1400 OFFCURVE",
"160 1400 QCURVE SMOOTH",
"98 1400 OFFCURVE",
"40 1348 OFFCURVE",
"40 1290 QCURVE SMOOTH",
"40 1072 OFFCURVE",
"50 754 OFFCURVE",
"50 630 QCURVE SMOOTH",
"50 458 OFFCURVE",
"31 271 OFFCURVE",
"30 160 QCURVE SMOOTH",
"29 53 OFFCURVE",
"90 0 OFFCURVE",
"190 0 QCURVE SMOOTH"
);
},
{
closed = 1;
nodes = (
"411 760 OFFCURVE",
"370 798 OFFCURVE",
"370 950 QCURVE SMOOTH",
"370 1090 OFFCURVE",
"400 1130 OFFCURVE",
"450 1130 QCURVE SMOOTH",
"500 1130 OFFCURVE",
"580 1041 OFFCURVE",
"580 940 QCURVE SMOOTH",
"580 830 OFFCURVE",
"524 760 OFFCURVE",
"450 760 QCURVE SMOOTH"
);
}
);
userData = {
com.schriftgestaltung.Glyphs.lastChange = "2019/06/15 13:28:13";
};
width = 970;
}
);
unicode = 0072;
},
{
glyphname = "alef-ar";
lastChange = "2019-12-08 00:00:13 +0000";
layers = (
{
layerId = master01;
paths = (
{
closed = 1;
nodes = (
"310 0 OFFCURVE",
"380 50 OFFCURVE",
"380 140 QCURVE SMOOTH",
"380 280 OFFCURVE",
"360 543 OFFCURVE",
"360 700 QCURVE SMOOTH",
"360 850 OFFCURVE",
"380 1100 OFFCURVE",
"380 1230 QCURVE SMOOTH",
"380 1341 OFFCURVE",
"300 1400 OFFCURVE",
"210 1400 QCURVE SMOOTH",
"120 1400 OFFCURVE",
"40 1347 OFFCURVE",
"40 1260 QCURVE SMOOTH",
"40 1140 OFFCURVE",
"60 870 OFFCURVE",
"60 700 QCURVE SMOOTH",
"60 544 OFFCURVE",
"40 260 OFFCURVE",
"40 140 QCURVE SMOOTH",
"40 50 OFFCURVE",
"110 0 OFFCURVE",
"210 0 QCURVE SMOOTH"
);
}
);
width = 420;
}
);
unicode = 0627;
},
{
glyphname = "alef-ar.fina";
lastChange = "2019-12-08 00:02:04 +0000";
layers = (
{
layerId = master01;
paths = (
{
closed = 1;
nodes = (
"596 270 OFFCURVE",
"546 340 OFFCURVE",
"456 340 QCURVE SMOOTH",
"406 340 OFFCURVE",
"360 383 OFFCURVE",
"360 700 QCURVE SMOOTH",
"360 850 OFFCURVE",
"380 1100 OFFCURVE",
"380 1230 QCURVE SMOOTH",
"380 1341 OFFCURVE",
"300 1400 OFFCURVE",
"210 1400 QCURVE SMOOTH",
"120 1400 OFFCURVE",
"40 1347 OFFCURVE",
"40 1260 QCURVE SMOOTH",
"40 1140 OFFCURVE",
"60 250 OFFCURVE",
"60 80 QCURVE SMOOTH",
"60 44 OFFCURVE",
"121 0 OFFCURVE",
"456 0 QCURVE SMOOTH",
"546 0 OFFCURVE",
"596 70 OFFCURVE",
"596 170 QCURVE SMOOTH"
);
}
);
width = 616;
}
);
unicode = FE8E;
},
{
glyphname = "behDotless-ar";
lastChange = "2019-12-08 00:16:42 +0000";
layers = (
{
layerId = master01;
paths = (
{
closed = 1;
nodes = (
"2110 741 LINE",
"2401 1014 LINE",
"2480 1000 LINE",
"2651 277 LINE",
"2443 0 LINE",
"1448 -239 LINE",
"354 -187 LINE",
"20 289 LINE",
"160 774 LINE",
"362 922 LINE",
"404 877 LINE",
"354 772 LINE",
"386 590 LINE",
"803 316 LINE",
"1803 268 LINE",
"2184 350 LINE",
"2084 653 LINE"
);
}
);
width = 2671;
}
);
unicode = 066E;
},
{
glyphname = "heh-ar.init";
lastChange = "2019-12-08 00:04:55 +0000";
layers = (
{
layerId = master01;
paths = (
{
closed = 1;
nodes = (
"41 446 LINE",
"103 454 OFFCURVE",
"192 407 OFFCURVE",
"228 410 CURVE",
"269 465 LINE",
"156 555 LINE",
"255 784 LINE",
"404 1030 LINE",
"802 1449 LINE",
"1238 887 LINE",
"1325 735 OFFCURVE",
"1454 467 OFFCURVE",
"1460 456 CURVE",
"1238 138 LINE",
"1099 0 LINE",
"976 -74 LINE",
"803 -31 LINE",
"644 103 LINE",
"547 98 LINE",
"520 47 OFFCURVE",
"494 56 OFFCURVE",
"482 50 CURVE",
"362 5 LINE",
"34 -4 LINE",
"34 103 LINE",
"33 245 LINE"
);
},
{
closed = 1;
nodes = (
"627 645 LINE",
"668 629 OFFCURVE",
"708 570 OFFCURVE",
"755 632 CURVE SMOOTH",
"802 694 OFFCURVE",
"654 936 OFFCURVE",
"577 948 CURVE SMOOTH",
"500 960 OFFCURVE",
"434 889 OFFCURVE",
"404 846 CURVE"
);
},
{
closed = 1;
nodes = (
"1026 303 LINE",
"1042 309 OFFCURVE",
"1061 372 OFFCURVE",
"1062 394 CURVE",
"953 644 LINE",
"785 500 LINE"
);
}
);
width = 1200;
}
);
unicode = FEEB;
},
{
glyphname = period;
layers = (
{
layerId = master01;
paths = (
{
closed = 1;
nodes = (
"286 0 LINE SMOOTH",
"332 0 OFFCURVE",
"372 40 OFFCURVE",
"372 80 QCURVE SMOOTH",
"372 280 LINE SMOOTH",
"372 320 OFFCURVE",
"337 360 OFFCURVE",
"286 360 QCURVE SMOOTH",
"124 360 LINE SMOOTH",
"67 360 OFFCURVE",
"32 320 OFFCURVE",
"32 280 QCURVE SMOOTH",
"32 80 LINE SMOOTH",
"32 40 OFFCURVE",
"72 0 OFFCURVE",
"124 0 QCURVE SMOOTH"
);
}
);
userData = {
com.schriftgestaltung.Glyphs.lastChange = "2019/06/14 15:34:32";
};
width = 400;
}
);
unicode = 002E;
},
{
glyphname = colon;
layers = (
{
layerId = master01;
paths = (
{
closed = 1;
nodes = (
"286 0 LINE SMOOTH",
"332 0 OFFCURVE",
"372 40 OFFCURVE",
"372 80 QCURVE SMOOTH",
"372 280 LINE SMOOTH",
"372 320 OFFCURVE",
"337 360 OFFCURVE",
"286 360 QCURVE SMOOTH",
"124 360 LINE SMOOTH",
"67 360 OFFCURVE",
"32 320 OFFCURVE",
"32 280 QCURVE SMOOTH",
"32 80 LINE SMOOTH",
"32 40 OFFCURVE",
"72 0 OFFCURVE",
"124 0 QCURVE SMOOTH"
);
},
{
closed = 1;
nodes = (
"290 900 LINE SMOOTH",
"332 900 OFFCURVE",
"370 940 OFFCURVE",
"370 980 QCURVE SMOOTH",
"370 1180 LINE SMOOTH",
"370 1220 OFFCURVE",
"337 1260 OFFCURVE",
"290 1260 QCURVE SMOOTH",
"120 1260 LINE SMOOTH",
"67 1260 OFFCURVE",
"30 1220 OFFCURVE",
"30 1180 QCURVE SMOOTH",
"30 980 LINE SMOOTH",
"30 940 OFFCURVE",
"72 900 OFFCURVE",
"120 900 QCURVE SMOOTH"
);
}
);
userData = {
com.schriftgestaltung.Glyphs.lastChange = "2019/06/15 14:48:12";
};
width = 400;
}
);
unicode = 003A;
},
{
glyphname = slash;
layers = (
{
layerId = master01;
paths = (
{
closed = 1;
nodes = (
"8 20 OFFCURVE",
"34 -10 OFFCURVE",
"54 -10 QCURVE SMOOTH",
"214 -10 LINE SMOOTH",
"272 -10 OFFCURVE",
"314 36 OFFCURVE",
"366 222 OFFCURVE",
"380 264 OFFCURVE",
"382 272 QCURVE SMOOTH",
"444 474 OFFCURVE",
"664 1274 OFFCURVE",
"682 1358 QCURVE",
"684 1384 LINE SMOOTH",
"684 1418 OFFCURVE",
"618 1430 OFFCURVE",
"564 1430 QCURVE SMOOTH",
"496 1430 OFFCURVE",
"436 1422 OFFCURVE",
"406 1394 OFFCURVE",
"400 1376 QCURVE SMOOTH",
"358 1250 OFFCURVE",
"150 534 OFFCURVE",
"112 418 QCURVE SMOOTH",
"74 298 OFFCURVE",
"8 52 OFFCURVE",
"8 36 QCURVE SMOOTH"
);
}
);
userData = {
com.schriftgestaltung.Glyphs.lastChange = "2019/06/14 15:34:32";
};
width = 690;
}
);
note = "\012slash\012";
unicode = 002F;
},
{
color = 4;
glyphname = emdash;
layers = (
{
layerId = master01;
paths = (
{
closed = 1;
nodes = (
"1108 600 LINE SMOOTH",
"1154 600 OFFCURVE",
"1194 633 OFFCURVE",
"1194 680 QCURVE SMOOTH",
"1194 800 LINE SMOOTH",
"1194 847 OFFCURVE",
"1152 880 OFFCURVE",
"1108 880 QCURVE SMOOTH",
"126 880 LINE SMOOTH",
"62 880 OFFCURVE",
"34 826 OFFCURVE",
"34 800 QCURVE SMOOTH",
"34 680 LINE SMOOTH",
"34 640 OFFCURVE",
"74 600 OFFCURVE",
"126 600 QCURVE SMOOTH"
);
}
);
userData = {
com.schriftgestaltung.Glyphs.lastChange = "2019/06/14 15:34:32";
};
width = 1230;
}
);
note = "\012emdash\012";
unicode = 2014;
},
{
glyphname = at;
layers = (
{
layerId = master01;
paths = (
{
closed = 1;
nodes = (
"22 430 OFFCURVE",
"22 648 QCURVE SMOOTH",
"22 676 LINE SMOOTH",
"22 818 OFFCURVE",
"112 1090 OFFCURVE",
"296 1310 OFFCURVE",
"584 1440 OFFCURVE",
"770 1440 QCURVE SMOOTH",
"794 1440 LINE SMOOTH",
"912 1438 OFFCURVE",
"1150 1368 OFFCURVE",
"1320 1228 OFFCURVE",
"1418 1068 OFFCURVE",
"1468 876 OFFCURVE",
"1468 772 QCURVE SMOOTH",
"1468 558 OFFCURVE",
"1370 280 OFFCURVE",
"1194 144 OFFCURVE",
"1078 134 QCURVE SMOOTH",
"1036 132 LINE SMOOTH",
"956 132 OFFCURVE",
"852 202 OFFCURVE",
"828 284 QCURVE",
"822 296 LINE",
"816 292 LINE SMOOTH",
"772 264 OFFCURVE",
"638 264 QCURVE SMOOTH",
"560 264 OFFCURVE",
"448 354 OFFCURVE",
"386 520 OFFCURVE",
"386 624 QCURVE SMOOTH",
"386 730 OFFCURVE",
"426 884 OFFCURVE",
"504 990 OFFCURVE",
"628 1042 OFFCURVE",
"728 1042 QCURVE SMOOTH",
"756 1042 OFFCURVE",
"806 1034 OFFCURVE",
"842 1018 OFFCURVE",
"844 1018 QCURVE SMOOTH",
"856 1018 OFFCURVE",
"884 1068 OFFCURVE",
"906 1068 QCURVE SMOOTH",
"978 1068 LINE SMOOTH",
"1016 1068 OFFCURVE",
"1044 1048 OFFCURVE",
"1050 1010 OFFCURVE",
"1050 1000 QCURVE SMOOTH",
"1050 954 LINE",
"1046 654 LINE SMOOTH",
"1046 520 OFFCURVE",
"1062 380 OFFCURVE",
"1094 380 QCURVE SMOOTH",
"1132 380 OFFCURVE",
"1198 582 OFFCURVE",
"1198 788 QCURVE SMOOTH",
"1198 986 OFFCURVE",
"978 1200 OFFCURVE",
"782 1200 QCURVE SMOOTH",
"668 1200 OFFCURVE",
"488 1132 OFFCURVE",
"362 994 OFFCURVE",
"294 772 OFFCURVE",
"294 626 QCURVE SMOOTH",
"294 560 OFFCURVE",
"330 410 OFFCURVE",
"550 150 OFFCURVE",
"330 -70 OFFCURVE",
"120 170 OFFCURVE"
);
},
{
closed = 1;
nodes = (
"694 810 OFFCURVE",
"650 752 OFFCURVE",
"650 660 QCURVE SMOOTH",
"650 558 OFFCURVE",
"694 492 OFFCURVE",
"734 492 QCURVE SMOOTH",
"776 492 OFFCURVE",
"820 558 OFFCURVE",
"820 660 QCURVE SMOOTH",
"820 752 OFFCURVE",
"776 810 OFFCURVE",
"734 810 QCURVE SMOOTH"
);
}
);
userData = {
com.schriftgestaltung.Glyphs.lastChange = "2019/06/14 15:34:32";
};
width = 1490;
}
);
note = "\012at\012";
unicode = 0040;
},
